# xmcd
#
# Track frame offsets:
#	150
#	15877
#	38100
#	52337
#	76730
#	89617
#	107987
#	124320
#	140040
#	159090
#
# Disc length: 2391 seconds
#
# Revision: 1
# Processed by: cddbd v1.5.2PL0 Copyright (c) Steve Scherf et al.
# Submitted via: audiograbber 1.83.01
#
DISCID=7e09550a
DTITLE=Ronny Kubera - Glasklar
DYEAR=1900
DGENRE=
TTITLE0=Wannso' allanig bist
TTITLE1=Volle Kraft voraus
TTITLE2=Weil I des Laben mag
TTITLE3=Strassenmusikantentraum
TTITLE4=Wasst noch was vorgestern war?
TTITLE5=Glasklar
TTITLE6=Sag, wohin gehst du
TTITLE7=Mei' Cabana
TTITLE8=Endlich Daham
TTITLE9=Kinderherzen (...Sie danken's Euch)
EXTD=
EXTT0=
EXTT1=
EXTT2=
EXTT3=
EXTT4=
EXTT5=
EXTT6=
EXTT7=
EXTT8=
EXTT9=
PLAYORDER=
